<svg id="svg" version="1.1" xmlns="http://www.w3.org/2000/svg" xmlns:xlink="http://www.w3.org/1999/xlink" width="400" height="400" viewBox="0, 0, 400,400"><g id="svgg"><path id="path0" d="M196.717 112.651 C 185.090 120.552,177.220 130.373,170.794 145.000 C 170.187 146.384,168.101 152.937,167.803 154.400 C 167.646 155.170,167.354 156.520,167.155 157.400 C 166.333 161.020,165.623 170.706,165.612 178.443 L 165.600 186.686 160.995 197.443 C 158.462 203.359,156.231 208.560,156.036 209.000 C 155.631 209.913,154.565 212.388,153.753 214.300 C 152.488 217.276,152.035 218.314,151.043 220.512 C 150.469 221.783,150.000 222.910,150.000 223.016 C 150.000 223.122,149.649 223.972,149.220 224.904 C 148.791 225.837,146.254 231.730,143.581 238.000 C 140.909 244.270,138.290 250.350,137.761 251.512 C 137.232 252.673,136.800 253.703,136.800 253.800 C 136.800 253.897,136.364 254.930,135.831 256.095 C 135.298 257.260,134.478 259.186,134.010 260.375 C 133.542 261.563,132.803 263.314,132.370 264.266 C 131.936 265.219,131.394 266.493,131.165 267.099 C 130.935 267.704,129.318 271.440,127.570 275.400 L 124.392 282.600 103.885 294.886 C 88.199 304.284,83.169 307.117,82.489 306.939 C 81.962 306.801,81.600 306.889,81.600 307.153 C 81.600 307.399,81.411 307.600,81.181 307.600 C 80.950 307.600,79.777 308.230,78.573 309.000 C 77.369 309.770,76.248 310.400,76.081 310.400 C 75.913 310.400,75.517 310.760,75.200 311.200 C 74.883 311.640,74.409 312.000,74.148 312.000 C 73.595 312.000,64.800 320.656,64.800 321.199 C 64.800 321.400,64.350 322.014,63.800 322.564 C 63.250 323.114,62.800 323.759,62.800 323.999 C 62.800 324.238,62.445 324.814,62.011 325.280 C 60.943 326.427,58.788 330.965,58.516 332.641 C 58.395 333.388,58.139 334.000,57.948 334.000 C 57.756 334.000,57.600 334.540,57.600 335.200 C 57.600 335.860,57.420 336.400,57.200 336.400 C 56.980 336.400,56.800 336.940,56.800 337.600 C 56.800 338.260,56.620 338.800,56.400 338.800 C 56.180 338.800,56.000 339.610,56.000 340.600 C 56.000 341.590,55.820 342.400,55.600 342.400 C 55.360 342.400,55.200 344.009,55.200 346.426 C 55.200 348.641,55.038 350.756,54.839 351.126 C 54.502 351.757,58.055 351.793,110.033 351.696 L 165.586 351.592 165.693 361.696 L 165.800 371.800 179.400 371.800 L 193.000 371.800 193.318 334.600 C 193.493 314.140,193.713 297.175,193.806 296.900 C 193.932 296.528,195.601 296.400,200.322 296.400 L 206.669 296.400 206.934 322.266 C 207.080 336.492,207.200 353.505,207.200 360.071 L 207.200 372.011 220.700 371.905 L 234.200 371.800 234.400 361.608 L 234.600 351.417 290.100 351.549 L 345.600 351.681 345.600 348.441 C 345.600 346.547,345.434 345.200,345.200 345.200 C 344.978 345.200,344.800 344.133,344.800 342.800 C 344.800 341.467,344.622 340.400,344.400 340.400 C 344.180 340.400,344.000 339.669,344.000 338.776 C 344.000 337.796,343.842 337.251,343.600 337.400 C 343.362 337.547,343.200 337.071,343.200 336.224 C 343.200 335.441,343.020 334.800,342.800 334.800 C 342.580 334.800,342.400 334.339,342.400 333.776 C 342.400 333.213,342.242 332.850,342.050 332.969 C 341.857 333.088,341.587 332.482,341.450 331.621 C 341.312 330.761,340.926 329.784,340.593 329.450 C 340.259 329.116,340.032 328.698,340.088 328.521 C 340.144 328.345,339.598 327.345,338.876 326.300 C 338.153 325.255,337.705 324.397,337.881 324.394 C 338.056 324.391,338.011 324.256,337.781 324.094 C 337.550 323.932,336.929 323.170,336.400 322.400 C 335.871 321.630,335.114 320.709,334.719 320.353 C 334.324 319.997,334.000 319.526,334.000 319.307 C 334.000 319.087,333.010 317.877,331.800 316.618 C 330.590 315.358,329.600 314.441,329.600 314.580 C 329.600 314.874,328.886 314.305,326.992 312.500 C 326.241 311.785,325.469 311.200,325.275 311.200 C 325.082 311.200,324.602 310.844,324.209 310.409 C 323.815 309.975,323.361 309.700,323.200 309.800 C 323.039 309.900,322.585 309.625,322.191 309.191 C 321.798 308.756,321.159 308.400,320.771 308.400 C 320.384 308.400,320.005 308.216,319.930 307.991 C 319.855 307.765,319.103 307.469,318.259 307.332 C 317.338 307.183,313.979 305.426,309.862 302.940 C 306.088 300.661,296.931 295.152,289.512 290.698 L 276.025 282.600 274.741 279.600 C 274.035 277.950,273.330 276.420,273.174 276.200 C 273.018 275.980,271.862 273.370,270.604 270.400 C 269.347 267.430,268.087 264.460,267.806 263.800 C 267.524 263.140,267.061 261.970,266.776 261.200 C 266.492 260.430,265.751 258.670,265.130 257.290 C 264.508 255.909,264.000 254.691,264.000 254.582 C 264.000 254.473,263.280 252.861,262.400 251.000 C 261.520 249.139,260.800 247.528,260.800 247.420 C 260.800 247.312,260.368 246.273,259.840 245.112 C 259.312 243.950,257.233 239.130,255.220 234.400 C 253.207 229.670,251.209 225.037,250.780 224.104 C 250.351 223.172,250.000 222.315,250.000 222.200 C 250.000 222.085,249.622 221.138,249.160 220.096 C 248.698 219.053,248.182 217.840,248.014 217.400 C 247.375 215.734,246.873 214.538,246.000 212.600 C 245.504 211.500,244.964 210.240,244.800 209.800 C 244.636 209.360,244.096 208.100,243.600 207.000 C 243.104 205.900,242.564 204.640,242.400 204.200 C 242.236 203.760,241.737 202.590,241.291 201.600 C 239.454 197.516,238.800 195.999,238.800 195.816 C 238.800 195.710,238.371 194.673,237.846 193.512 C 237.322 192.350,236.332 190.110,235.646 188.533 L 234.400 185.666 234.400 175.298 C 234.400 148.146,225.129 128.404,205.631 114.032 C 200.080 109.941,200.591 110.020,196.717 112.651 M204.177 158.583 C 209.596 159.620,214.859 162.647,217.900 166.476 C 219.586 168.598,219.930 168.100,214.026 172.100 C 208.102 176.115,208.684 175.911,207.058 174.538 C 203.024 171.132,195.290 171.304,193.076 174.849 C 192.347 176.017,191.895 175.832,186.379 172.100 C 180.398 168.054,180.560 168.409,183.367 165.488 C 188.988 159.638,196.559 157.126,204.177 158.583 M81.105 374.683 C 81.602 374.779,82.322 374.775,82.705 374.675 C 83.087 374.575,82.680 374.496,81.800 374.501 C 80.920 374.505,80.607 374.587,81.105 374.683 " stroke="none" fill="#bdc5cd" fill-rule="evenodd"></path><path id="path1" d="M196.000 158.597 C 190.868 159.627,186.938 161.771,183.367 165.488 C 180.560 168.409,180.398 168.054,186.379 172.100 C 191.895 175.832,192.347 176.017,193.076 174.849 C 195.290 171.304,203.024 171.132,207.058 174.538 C 208.684 175.911,208.102 176.115,214.026 172.100 C 219.930 168.100,219.586 168.598,217.900 166.476 C 212.994 160.299,203.871 157.017,196.000 158.597 M193.806 296.900 C 193.713 297.175,193.493 314.140,193.318 334.600 L 193.000 371.800 179.400 371.800 L 165.800 371.800 165.693 361.700 L 165.586 351.600 110.626 351.600 C 80.398 351.600,55.381 351.709,55.033 351.843 C 54.193 352.165,54.069 371.417,54.900 372.497 C 55.289 373.003,56.379 373.192,59.800 373.350 C 62.220 373.461,66.270 373.648,68.800 373.766 C 71.330 373.883,74.480 374.093,75.800 374.232 C 77.120 374.371,79.820 374.534,81.800 374.595 C 83.780 374.655,86.991 374.839,88.936 375.003 L 92.473 375.301 92.283 376.950 C 92.179 377.858,91.876 380.760,91.609 383.400 C 91.342 386.040,90.961 388.513,90.762 388.895 C 90.563 389.277,90.400 390.772,90.400 392.218 C 90.400 393.869,90.251 394.755,90.000 394.600 C 89.748 394.444,89.600 395.396,89.600 397.176 L 89.600 400.000 110.600 400.000 L 131.600 400.000 131.600 397.224 C 131.600 395.697,131.420 394.336,131.200 394.200 C 130.980 394.064,130.800 392.984,130.800 391.800 C 130.800 390.616,130.620 389.536,130.400 389.400 C 130.180 389.264,130.000 387.993,130.000 386.576 C 130.000 385.125,129.825 384.000,129.600 384.000 C 129.378 384.000,129.200 382.933,129.200 381.600 C 129.200 380.267,129.022 379.200,128.800 379.200 C 128.580 379.200,128.400 378.840,128.400 378.400 C 128.400 377.639,128.667 377.600,133.824 377.600 C 136.962 377.600,139.153 377.753,139.023 377.962 C 138.894 378.172,141.371 378.347,144.900 378.378 C 148.391 378.409,151.057 378.596,151.133 378.816 C 151.211 379.039,153.849 379.200,157.433 379.200 C 161.278 379.200,163.600 379.351,163.600 379.600 C 163.600 379.820,163.960 380.000,164.400 380.000 C 165.179 380.000,165.200 380.267,165.200 390.000 L 165.200 400.000 200.400 400.000 L 235.600 400.000 235.600 390.000 C 235.600 380.267,235.621 380.000,236.400 380.000 C 236.840 380.000,237.200 379.820,237.200 379.600 C 237.200 379.351,239.533 379.200,243.400 379.200 C 247.267 379.200,249.600 379.049,249.600 378.800 C 249.600 378.551,251.859 378.400,255.576 378.400 C 259.129 378.400,261.653 378.238,261.800 378.000 C 261.942 377.769,264.071 377.600,266.824 377.600 L 271.600 377.600 271.600 378.800 C 271.600 379.460,271.420 380.000,271.200 380.000 C 270.972 380.000,270.800 381.192,270.800 382.776 C 270.800 384.303,270.620 385.664,270.400 385.800 C 270.180 385.936,270.000 387.207,270.000 388.624 C 270.000 390.041,269.835 391.200,269.634 391.200 C 269.433 391.200,269.171 392.325,269.052 393.700 C 268.932 395.075,268.719 397.055,268.577 398.100 L 268.319 400.000 289.760 400.000 L 311.200 400.000 311.200 398.600 C 311.200 397.830,311.020 397.200,310.800 397.200 C 310.580 397.200,310.400 396.221,310.400 395.024 C 310.400 393.827,310.220 392.736,310.000 392.600 C 309.780 392.464,309.597 391.148,309.594 389.676 C 309.590 387.801,309.472 387.180,309.200 387.600 C 308.926 388.024,308.810 387.498,308.805 385.800 C 308.800 384.480,308.531 381.780,308.205 379.800 C 307.880 377.820,307.611 375.995,307.607 375.744 C 307.600 375.299,312.246 374.854,319.543 374.601 C 321.224 374.543,323.680 374.379,325.000 374.237 C 326.320 374.095,329.470 373.882,332.000 373.764 C 334.530 373.646,338.625 373.456,341.100 373.340 L 345.600 373.131 345.600 362.366 L 345.600 351.600 297.200 351.505 C 270.580 351.453,245.605 351.408,241.700 351.405 L 234.600 351.400 234.400 361.600 L 234.200 371.800 220.700 371.905 L 207.200 372.011 207.200 360.071 C 207.200 353.505,207.080 336.492,206.934 322.266 L 206.669 296.400 200.322 296.400 C 195.601 296.400,193.932 296.528,193.806 296.900 " stroke="none" fill="#76868f" fill-rule="evenodd"></path><path id="path2" d="M197.895 0.277 C 197.507 0.378,197.275 0.598,197.379 0.766 C 197.483 0.934,196.816 1.494,195.897 2.010 C 194.300 2.907,193.359 3.649,190.706 6.100 C 190.051 6.705,189.360 7.200,189.171 7.200 C 188.982 7.200,188.191 7.836,187.413 8.613 C 186.636 9.391,186.000 9.924,186.000 9.800 C 186.000 9.675,185.505 10.079,184.900 10.698 C 184.295 11.317,183.647 11.845,183.461 11.873 C 182.994 11.942,173.107 21.997,173.491 22.012 C 173.661 22.019,173.485 22.208,173.100 22.432 C 172.715 22.656,172.400 23.022,172.400 23.246 C 172.400 23.469,171.509 24.520,170.421 25.580 C 169.332 26.640,168.531 27.598,168.642 27.708 C 168.752 27.819,168.411 28.248,167.885 28.662 C 167.358 29.076,166.694 29.852,166.408 30.385 C 166.123 30.918,165.464 31.813,164.945 32.373 C 164.425 32.933,164.000 33.520,164.000 33.678 C 164.000 33.835,163.561 34.403,163.024 34.939 C 162.488 35.476,162.158 36.024,162.291 36.158 C 162.424 36.291,162.323 36.400,162.067 36.400 C 161.810 36.400,161.600 36.676,161.600 37.013 C 161.600 37.349,161.359 37.717,161.065 37.830 C 160.771 37.943,160.018 39.108,159.391 40.418 C 158.765 41.728,158.106 42.800,157.926 42.800 C 157.747 42.800,157.600 43.070,157.600 43.400 C 157.600 43.730,157.420 44.000,157.200 44.000 C 156.980 44.000,156.800 44.270,156.800 44.600 C 156.800 44.930,156.609 45.200,156.376 45.200 C 156.143 45.200,156.051 45.360,156.172 45.555 C 156.293 45.750,156.160 46.101,155.878 46.335 C 155.595 46.570,155.114 47.400,154.808 48.181 C 154.501 48.961,154.104 49.600,153.925 49.600 C 153.746 49.600,153.600 49.960,153.600 50.400 C 153.600 50.840,153.420 51.200,153.200 51.200 C 152.980 51.200,152.800 51.560,152.800 52.000 C 152.800 52.440,152.620 52.800,152.400 52.800 C 152.180 52.800,152.000 53.160,152.000 53.600 C 152.000 54.040,151.820 54.400,151.600 54.400 C 151.380 54.400,151.200 54.760,151.200 55.200 C 151.200 55.640,151.020 56.000,150.800 56.000 C 150.580 56.000,150.400 56.360,150.400 56.800 C 150.400 57.240,150.220 57.600,150.000 57.600 C 149.780 57.600,149.600 57.960,149.600 58.400 C 149.600 58.840,149.420 59.200,149.200 59.200 C 148.980 59.200,148.800 59.472,148.800 59.805 C 148.800 60.138,148.592 60.813,148.338 61.305 C 147.342 63.231,147.200 63.617,147.200 64.395 C 147.200 64.838,147.020 65.200,146.800 65.200 C 146.580 65.200,146.400 65.549,146.400 65.976 C 146.400 66.403,146.220 66.864,146.000 67.000 C 145.780 67.136,145.600 67.676,145.600 68.200 C 145.600 68.724,145.420 69.264,145.200 69.400 C 144.980 69.536,144.800 70.076,144.800 70.600 C 144.800 71.124,144.620 71.664,144.400 71.800 C 144.180 71.936,144.000 72.399,144.000 72.829 C 144.000 73.259,143.831 73.923,143.624 74.305 C 143.117 75.242,142.654 77.248,142.756 78.065 C 142.801 78.430,142.650 78.846,142.419 78.988 C 142.189 79.131,142.000 79.957,142.000 80.824 C 142.000 81.691,141.820 82.400,141.600 82.400 C 141.380 82.400,141.200 83.120,141.200 84.000 C 141.200 84.880,141.020 85.600,140.800 85.600 C 140.580 85.600,140.400 86.500,140.400 87.600 C 140.400 88.700,140.220 89.600,140.000 89.600 C 139.780 89.600,139.600 90.489,139.600 91.576 C 139.600 92.663,139.449 93.646,139.264 93.761 C 139.078 93.875,138.888 95.191,138.841 96.684 C 138.793 98.178,138.584 99.571,138.377 99.780 C 138.170 99.989,138.000 102.344,138.000 105.013 C 138.000 107.683,137.875 109.992,137.722 110.145 C 137.248 110.619,137.069 122.692,137.351 135.137 L 137.400 137.274 131.200 137.435 C 127.790 137.524,115.595 137.692,104.100 137.809 L 83.200 138.021 83.200 140.610 C 83.200 142.070,83.025 143.200,82.800 143.200 C 82.559 143.200,82.400 144.867,82.400 147.400 L 82.400 151.600 100.535 151.600 C 110.510 151.600,123.020 151.719,128.335 151.864 L 138.000 152.128 138.000 172.400 L 138.000 192.672 127.500 192.935 C 121.725 193.080,109.215 193.199,99.700 193.199 L 82.400 193.200 82.400 199.757 C 82.400 205.368,82.491 206.349,83.033 206.557 C 83.381 206.691,91.272 206.800,100.568 206.800 C 109.864 206.800,122.089 206.919,127.735 207.064 L 138.000 207.328 138.000 228.064 C 138.000 239.805,138.153 248.800,138.354 248.800 C 138.548 248.800,139.119 247.765,139.623 246.500 C 140.127 245.235,140.977 243.210,141.513 242.000 C 142.599 239.545,143.446 237.592,144.200 235.800 C 145.099 233.663,145.889 231.840,146.753 229.904 C 147.219 228.862,147.600 227.922,147.600 227.816 C 147.600 227.710,148.032 226.673,148.560 225.512 C 149.088 224.350,151.167 219.530,153.179 214.800 C 155.192 210.070,157.100 205.615,157.420 204.900 C 157.739 204.185,158.249 203.015,158.553 202.300 C 158.856 201.585,159.396 200.325,159.753 199.500 C 160.109 198.675,160.691 197.325,161.047 196.500 C 162.015 194.259,162.835 192.343,163.401 191.000 C 163.679 190.340,164.288 188.947,164.753 187.904 C 165.546 186.129,165.600 185.338,165.600 175.475 C 165.600 164.635,166.008 160.059,167.499 154.190 L 168.208 151.400 153.304 151.509 L 138.400 151.619 138.400 145.859 C 138.400 142.692,138.287 139.538,138.150 138.850 L 137.900 137.600 155.550 137.600 C 172.088 137.600,173.201 137.644,173.213 138.300 C 173.219 138.685,173.720 138.010,174.326 136.800 C 175.299 134.853,179.355 128.527,179.968 128.000 C 180.095 127.890,181.004 126.810,181.987 125.600 C 186.139 120.488,191.349 115.803,197.478 111.671 C 200.510 109.627,199.809 109.549,203.932 112.383 C 211.218 117.391,217.271 123.427,221.901 130.304 C 223.124 132.121,224.203 133.530,224.299 133.435 C 224.394 133.340,223.742 132.187,222.850 130.874 L 221.229 128.486 221.045 98.343 C 220.944 81.764,220.759 67.030,220.634 65.600 C 219.735 55.297,217.707 44.415,214.744 34.000 C 213.125 28.308,212.155 25.407,210.800 22.200 C 210.521 21.540,210.113 20.550,209.893 20.000 C 209.673 19.450,209.313 18.550,209.093 18.000 C 208.873 17.450,208.559 16.640,208.395 16.200 C 207.890 14.842,205.612 10.004,203.374 5.538 C 201.387 1.573,201.250 0.547,202.889 1.908 C 203.312 2.259,203.575 2.265,203.910 1.930 C 204.990 0.850,200.464 -0.394,197.895 0.277 M204.094 2.483 C 204.292 3.075,206.486 4.358,206.900 4.123 C 207.065 4.029,207.200 4.244,207.200 4.600 C 207.200 4.956,207.389 5.131,207.619 4.988 C 208.153 4.659,207.338 3.600,206.551 3.600 C 206.248 3.600,206.000 3.401,206.000 3.157 C 206.000 2.914,205.739 2.814,205.420 2.937 C 205.033 3.085,204.915 2.967,205.063 2.580 C 205.203 2.214,205.036 2.000,204.609 2.000 C 204.238 2.000,204.006 2.217,204.094 2.483 M208.000 5.625 C 208.000 5.831,208.255 6.000,208.567 6.000 C 208.878 6.000,209.204 6.212,209.290 6.471 C 209.377 6.730,209.660 6.810,209.920 6.650 C 210.279 6.427,210.281 6.239,209.926 5.859 C 209.368 5.261,208.000 5.095,208.000 5.625 M210.557 7.433 C 210.691 7.781,210.800 8.141,210.800 8.233 C 210.800 8.325,211.070 8.400,211.400 8.400 C 211.730 8.400,212.000 8.568,212.000 8.773 C 212.000 9.172,213.569 9.822,214.149 9.663 C 214.341 9.610,214.392 9.845,214.262 10.184 C 214.115 10.566,214.248 10.800,214.613 10.800 C 214.936 10.800,215.200 10.642,215.200 10.449 C 215.200 9.985,214.004 9.000,213.988 9.451 C 213.981 9.643,213.792 9.485,213.568 9.100 C 213.344 8.715,212.939 8.400,212.668 8.400 C 212.398 8.400,211.917 8.040,211.600 7.600 C 210.914 6.648,210.213 6.535,210.557 7.433 M215.468 10.690 C 215.170 11.173,215.525 12.400,215.962 12.400 C 216.114 12.400,216.860 13.024,217.619 13.787 C 218.379 14.550,219.225 15.180,219.500 15.187 C 219.775 15.194,219.955 15.425,219.900 15.700 C 219.845 15.975,220.113 16.175,220.496 16.145 C 220.878 16.115,221.084 16.264,220.953 16.476 C 220.822 16.688,221.087 17.207,221.541 17.631 C 222.535 18.557,222.667 18.577,222.667 17.800 C 222.667 17.470,222.416 17.200,222.110 17.200 C 221.803 17.200,221.648 17.046,221.764 16.859 C 221.880 16.671,221.326 15.996,220.534 15.359 C 219.157 14.251,218.673 13.765,217.100 11.905 C 216.715 11.450,216.387 11.240,216.372 11.439 C 216.356 11.637,216.207 11.452,216.041 11.027 C 215.852 10.544,215.636 10.418,215.468 10.690 M223.826 19.558 C 223.676 19.801,223.713 20.000,223.909 20.000 C 224.105 20.000,224.508 20.454,224.804 21.008 C 225.140 21.635,225.486 21.874,225.719 21.641 C 225.952 21.408,225.717 20.860,225.097 20.191 C 224.456 19.500,224.002 19.273,223.826 19.558 M226.000 21.928 C 226.000 22.108,226.449 22.646,226.997 23.122 C 227.545 23.599,228.642 24.892,229.434 25.995 C 230.242 27.119,231.065 27.884,231.306 27.735 C 231.560 27.578,231.654 27.701,231.537 28.034 C 231.324 28.637,232.574 30.093,232.967 29.700 C 233.095 29.572,233.200 29.857,233.200 30.333 C 233.200 30.810,233.342 31.200,233.516 31.200 C 233.690 31.200,234.358 32.100,235.000 33.200 C 235.642 34.300,236.310 35.200,236.484 35.200 C 236.658 35.200,236.800 35.470,236.800 35.800 C 236.800 36.517,237.434 36.592,237.847 35.924 C 238.009 35.662,237.930 35.377,237.671 35.290 C 237.412 35.204,237.200 34.890,237.200 34.594 C 237.200 34.297,236.840 33.940,236.400 33.800 C 235.877 33.634,235.600 33.195,235.600 32.530 C 235.600 31.807,235.433 31.579,235.020 31.737 C 234.613 31.893,234.514 31.767,234.688 31.314 C 234.828 30.950,234.769 30.772,234.553 30.906 C 234.342 31.036,233.953 30.653,233.689 30.056 C 232.814 28.080,226.000 20.876,226.000 21.928 M237.600 37.024 C 237.600 37.367,237.742 37.560,237.915 37.452 C 238.088 37.345,238.449 37.751,238.715 38.354 C 238.982 38.957,239.560 39.836,240.000 40.308 C 240.440 40.780,240.800 41.455,240.800 41.807 C 240.800 42.159,240.980 42.336,241.200 42.200 C 241.420 42.064,241.600 42.323,241.600 42.776 C 241.600 43.229,241.780 43.600,242.000 43.600 C 242.220 43.600,242.400 43.870,242.400 44.200 C 242.400 44.530,242.580 44.800,242.800 44.800 C 243.020 44.800,243.200 45.070,243.200 45.400 C 243.200 45.730,243.380 46.000,243.600 46.000 C 243.820 46.000,244.000 46.360,244.000 46.800 C 244.000 47.240,244.136 47.600,244.302 47.600 C 244.469 47.600,244.844 48.140,245.136 48.800 C 245.699 50.071,246.400 50.404,246.400 49.400 C 246.400 49.070,246.130 48.800,245.800 48.800 C 245.470 48.800,245.233 48.665,245.274 48.500 C 245.352 48.188,244.341 45.987,243.484 44.600 C 243.212 44.160,242.461 42.900,241.814 41.800 C 241.167 40.700,240.538 39.710,240.416 39.600 C 240.293 39.490,239.744 38.726,239.196 37.903 C 238.134 36.306,237.600 36.012,237.600 37.024 M246.400 51.038 C 246.400 51.389,246.755 52.175,247.188 52.783 C 247.622 53.392,247.887 53.979,247.779 54.088 C 247.670 54.197,247.855 54.514,248.190 54.792 C 248.526 55.070,248.800 55.636,248.800 56.049 C 248.800 56.462,248.980 56.800,249.200 56.800 C 249.420 56.800,249.600 56.440,249.600 56.000 C 249.600 55.560,249.420 55.200,249.200 55.200 C 248.980 55.200,248.800 54.840,248.800 54.400 C 248.800 53.960,248.620 53.600,248.400 53.600 C 248.180 53.600,248.000 53.240,248.000 52.800 C 248.000 52.360,247.747 52.000,247.437 52.000 C 247.072 52.000,246.948 51.720,247.084 51.200 C 247.201 50.753,247.096 50.400,246.847 50.400 C 246.601 50.400,246.400 50.687,246.400 51.038 M249.494 57.039 C 249.207 57.326,249.573 58.400,249.958 58.400 C 250.107 58.400,250.257 58.040,250.290 57.600 C 250.349 56.820,249.976 56.558,249.494 57.039 M250.400 59.200 C 250.062 59.832,250.096 60.000,250.561 60.000 C 250.904 60.000,251.125 59.665,251.090 59.200 C 251.057 58.760,250.984 58.400,250.929 58.400 C 250.874 58.400,250.635 58.760,250.400 59.200 M251.028 60.755 C 250.907 60.950,251.075 61.330,251.401 61.600 C 251.787 61.921,251.905 62.441,251.740 63.098 C 251.550 63.852,251.627 64.057,252.044 63.918 C 252.746 63.682,252.782 62.368,252.106 61.668 C 251.824 61.375,251.695 60.970,251.820 60.768 C 251.945 60.565,251.867 60.400,251.647 60.400 C 251.427 60.400,251.149 60.560,251.028 60.755 M252.642 64.635 C 252.320 65.474,252.335 65.600,252.757 65.600 C 253.257 65.600,253.638 64.471,253.224 64.215 C 253.037 64.099,252.775 64.288,252.642 64.635 M253.322 66.658 C 253.176 67.038,253.331 67.507,253.690 67.769 C 254.047 68.030,254.260 68.672,254.193 69.284 C 254.105 70.085,254.222 70.290,254.670 70.118 C 255.070 69.964,255.176 69.612,254.995 69.045 C 254.847 68.580,254.632 67.705,254.517 67.100 C 254.285 65.871,253.707 65.657,253.322 66.658 M255.067 70.667 C 254.642 71.091,254.758 72.073,255.200 71.800 C 255.631 71.534,255.726 71.973,255.612 73.700 C 255.562 74.465,255.732 74.800,256.170 74.800 C 256.931 74.800,256.952 74.271,256.268 72.307 C 255.675 70.605,255.444 70.289,255.067 70.667 M256.678 75.855 C 256.266 76.268,256.341 77.600,256.776 77.600 C 256.983 77.600,257.263 77.421,257.398 77.203 C 257.707 76.703,257.053 75.480,256.678 75.855 M257.200 79.200 C 257.200 79.860,257.380 80.400,257.600 80.400 C 257.820 80.400,258.000 79.860,258.000 79.200 C 258.000 78.540,257.820 78.000,257.600 78.000 C 257.380 78.000,257.200 78.540,257.200 79.200 M258.000 82.153 C 258.000 83.973,258.571 84.325,258.698 82.583 C 258.752 81.847,258.617 81.134,258.398 80.999 C 258.163 80.853,258.000 81.326,258.000 82.153 M259.067 84.667 C 258.629 85.104,258.757 87.274,259.204 86.997 C 259.427 86.860,259.568 86.219,259.519 85.574 C 259.420 84.267,259.435 84.298,259.067 84.667 M259.867 87.867 C 259.443 88.290,259.557 90.800,260.000 90.800 C 260.220 90.800,260.400 90.080,260.400 89.200 C 260.400 87.565,260.334 87.400,259.867 87.867 M260.451 93.980 C 260.500 95.069,260.689 95.868,260.871 95.756 C 261.355 95.457,261.272 92.000,260.780 92.000 C 260.532 92.000,260.397 92.807,260.451 93.980 M261.467 97.067 C 261.067 97.466,261.145 101.919,261.556 102.173 C 261.752 102.294,261.931 101.135,261.955 99.596 C 261.998 96.786,261.957 96.576,261.467 97.067 M262.185 105.225 C 262.040 105.458,261.983 112.883,262.058 121.725 C 262.132 130.566,262.148 140.860,262.092 144.600 C 261.587 178.378,261.456 248.289,261.896 248.984 C 262.296 249.615,262.413 245.595,262.496 228.384 L 262.600 207.000 289.914 207.000 C 313.758 207.000,317.276 206.924,317.608 206.400 C 318.211 205.448,318.111 193.218,317.500 193.121 C 317.225 193.078,304.760 193.033,289.800 193.021 L 262.600 193.000 262.600 172.400 L 262.600 151.800 289.800 151.800 C 304.760 151.800,317.204 151.667,317.454 151.505 C 317.955 151.179,318.442 148.727,317.945 149.034 C 317.774 149.140,317.639 147.019,317.645 144.322 C 317.651 141.189,317.501 139.367,317.228 139.276 C 316.992 139.197,316.800 138.792,316.800 138.374 C 316.800 137.274,315.678 137.125,309.382 137.387 C 306.312 137.515,294.575 137.751,283.300 137.910 L 262.800 138.200 262.772 126.800 C 262.714 102.314,262.768 104.281,262.185 105.225 M225.200 135.390 C 225.200 135.495,225.559 136.170,225.999 136.890 C 226.886 138.345,227.078 137.958,226.300 136.283 C 225.869 135.354,225.200 134.811,225.200 135.390 M169.355 147.100 C 169.234 147.485,168.970 148.213,168.767 148.719 C 168.565 149.224,168.415 149.944,168.434 150.319 C 168.456 150.751,168.591 150.634,168.803 150.000 C 169.634 147.516,169.930 146.400,169.760 146.400 C 169.658 146.400,169.476 146.715,169.355 147.100 M231.616 150.029 C 231.607 150.155,231.850 151.055,232.157 152.029 C 232.463 153.003,232.927 154.880,233.189 156.200 C 233.451 157.520,233.840 159.320,234.054 160.200 C 234.268 161.080,234.545 167.290,234.670 174.000 C 234.874 185.000,234.974 186.377,235.690 188.000 C 237.028 191.032,237.504 192.168,237.767 192.957 C 237.905 193.374,238.111 193.622,238.224 193.509 C 238.417 193.316,237.404 190.467,236.193 187.800 C 235.801 186.939,235.585 183.779,235.427 176.600 C 235.206 166.583,234.843 161.713,234.011 157.600 C 233.767 156.390,233.463 154.804,233.337 154.076 C 233.134 152.908,231.657 149.435,231.616 150.029 M243.007 205.079 C 243.745 206.845,244.000 207.156,244.000 206.290 C 244.000 205.937,243.820 205.536,243.600 205.400 C 243.380 205.264,243.200 204.803,243.200 204.376 C 243.200 203.949,243.018 203.600,242.795 203.600 C 242.559 203.600,242.648 204.220,243.007 205.079 M244.000 207.398 C 244.000 207.533,244.379 208.489,244.842 209.522 C 245.305 210.555,245.935 211.985,246.242 212.700 C 246.549 213.415,247.056 214.585,247.369 215.300 C 247.682 216.015,248.326 217.587,248.800 218.793 C 249.274 219.999,250.098 221.940,250.631 223.105 C 251.164 224.270,251.600 225.304,251.600 225.402 C 251.600 225.500,252.108 226.709,252.730 228.090 C 253.351 229.470,254.110 231.230,254.416 232.000 C 255.282 234.176,256.366 236.247,256.384 235.759 C 256.401 235.286,253.468 228.143,252.056 225.222 C 251.585 224.247,251.194 223.259,251.187 223.025 C 251.181 222.791,250.641 221.525,249.987 220.210 C 249.334 218.896,248.800 217.501,248.800 217.110 C 248.800 216.720,248.620 216.400,248.400 216.400 C 248.180 216.400,248.000 216.128,248.000 215.795 C 248.000 215.462,247.843 214.877,247.650 214.495 C 246.152 211.520,245.600 210.247,245.600 209.762 C 245.600 209.453,245.420 209.200,245.200 209.200 C 244.980 209.200,244.800 208.851,244.800 208.424 C 244.800 207.997,244.620 207.536,244.400 207.400 C 244.180 207.264,244.000 207.263,244.000 207.398 M256.400 236.551 C 256.400 237.233,257.756 239.682,257.902 239.265 C 258.005 238.971,257.890 238.530,257.645 238.285 C 257.400 238.040,257.200 237.516,257.200 237.120 C 257.200 236.724,257.020 236.400,256.800 236.400 C 256.580 236.400,256.400 236.468,256.400 236.551 M258.817 242.300 C 258.857 243.011,260.368 245.349,260.383 244.724 C 260.392 244.352,260.220 243.936,260.000 243.800 C 259.780 243.664,259.600 243.203,259.600 242.776 C 259.600 242.349,259.420 242.000,259.200 242.000 C 258.980 242.000,258.808 242.135,258.817 242.300 M103.500 261.893 L 82.400 262.007 82.400 268.787 L 82.400 275.568 104.300 275.684 C 129.292 275.816,126.849 275.962,127.567 274.294 C 127.873 273.582,128.476 272.190,128.908 271.200 C 129.340 270.210,129.923 268.860,130.204 268.200 C 130.486 267.540,131.077 266.190,131.520 265.200 C 131.962 264.210,132.386 263.040,132.462 262.600 C 132.624 261.660,135.215 261.723,103.500 261.893 M285.507 261.900 L 267.615 262.008 268.439 264.104 C 268.892 265.257,269.501 266.740,269.793 267.400 C 270.085 268.060,270.656 269.396,271.062 270.369 C 271.468 271.341,272.162 272.871,272.605 273.769 L 273.409 275.400 295.205 275.695 C 320.951 276.045,318.000 276.924,318.000 268.897 C 318.000 261.006,318.615 261.580,310.286 261.696 C 306.499 261.748,295.348 261.840,285.507 261.900 " stroke="none" fill="#eb6f1f" fill-rule="evenodd"></path><path id="path3" d="M110.432 81.900 C 110.414 82.175,110.217 82.400,109.993 82.400 C 109.549 82.400,106.800 85.101,106.800 85.538 C 106.800 85.686,106.440 86.032,106.000 86.307 C 105.560 86.582,105.200 86.985,105.200 87.203 C 105.200 87.421,104.480 88.341,103.600 89.248 C 102.720 90.155,102.000 91.053,102.000 91.245 C 102.000 91.436,101.460 92.109,100.800 92.740 C 100.140 93.371,99.600 94.064,99.600 94.281 C 99.600 94.498,99.240 95.002,98.800 95.400 C 98.360 95.798,98.000 96.366,98.000 96.662 C 98.000 96.958,97.850 97.200,97.668 97.200 C 97.485 97.200,97.085 97.695,96.780 98.300 C 96.474 98.905,95.758 100.120,95.187 101.000 C 93.777 103.174,92.000 106.932,92.000 107.740 C 92.000 108.103,91.865 108.401,91.700 108.403 C 91.341 108.407,90.400 110.344,90.400 111.080 C 90.400 111.366,90.220 111.600,90.000 111.600 C 89.780 111.600,89.600 112.050,89.600 112.600 C 89.600 113.150,89.420 113.600,89.200 113.600 C 88.980 113.600,88.800 113.949,88.800 114.376 C 88.800 114.803,88.620 115.264,88.400 115.400 C 88.180 115.536,88.000 116.087,88.000 116.624 C 88.000 117.161,87.820 117.600,87.600 117.600 C 87.380 117.600,87.200 118.129,87.200 118.776 C 87.200 119.423,87.020 120.064,86.800 120.200 C 86.580 120.336,86.400 120.876,86.400 121.400 C 86.400 121.924,86.220 122.464,86.000 122.600 C 85.780 122.736,85.600 123.467,85.600 124.224 C 85.600 124.981,85.420 125.600,85.200 125.600 C 84.980 125.600,84.800 126.421,84.800 127.424 C 84.800 128.537,84.644 129.151,84.400 129.000 C 84.154 128.848,84.000 129.521,84.000 130.753 C 84.000 131.853,83.820 132.864,83.600 133.000 C 83.380 133.136,83.200 134.321,83.200 135.634 L 83.200 138.021 104.100 137.809 C 115.595 137.692,127.790 137.524,131.200 137.435 L 137.400 137.274 137.376 135.337 C 137.331 131.613,137.059 128.760,136.731 128.557 C 136.549 128.445,136.400 127.733,136.400 126.976 C 136.400 126.219,136.220 125.600,136.000 125.600 C 135.780 125.600,135.600 124.981,135.600 124.224 C 135.600 123.467,135.420 122.736,135.200 122.600 C 134.980 122.464,134.800 121.823,134.800 121.176 C 134.800 120.529,134.620 120.000,134.400 120.000 C 134.180 120.000,134.000 119.460,134.000 118.800 C 134.000 118.140,133.820 117.600,133.600 117.600 C 133.380 117.600,133.200 117.238,133.200 116.795 C 133.200 116.352,133.020 115.632,132.800 115.195 C 132.580 114.758,132.220 114.042,132.000 113.605 C 131.780 113.168,131.600 112.448,131.600 112.005 C 131.600 111.562,131.420 111.200,131.200 111.200 C 130.980 111.200,130.800 110.840,130.800 110.400 C 130.800 109.960,130.620 109.600,130.400 109.600 C 130.180 109.600,130.000 109.330,130.000 109.000 C 130.000 108.670,129.820 108.400,129.600 108.400 C 129.380 108.400,129.200 108.040,129.200 107.600 C 129.200 107.160,129.020 106.800,128.800 106.800 C 128.580 106.800,128.400 106.440,128.400 106.000 C 128.400 105.560,128.220 105.200,128.000 105.200 C 127.780 105.200,127.600 104.840,127.600 104.400 C 127.600 103.960,127.420 103.600,127.200 103.600 C 126.980 103.600,126.800 103.240,126.800 102.800 C 126.800 102.360,126.620 102.000,126.400 102.000 C 126.180 102.000,126.000 101.706,126.000 101.347 C 126.000 100.988,125.685 100.403,125.300 100.047 C 124.915 99.691,124.541 99.130,124.470 98.800 C 124.286 97.952,122.261 94.802,121.900 94.801 C 121.735 94.800,121.600 94.532,121.600 94.203 C 121.600 93.875,121.240 93.382,120.800 93.107 C 120.360 92.832,120.000 92.381,120.000 92.104 C 120.000 91.827,119.820 91.600,119.600 91.600 C 119.380 91.600,119.200 91.406,119.200 91.169 C 119.200 90.931,118.488 90.053,117.618 89.217 C 116.748 88.381,116.108 87.625,116.197 87.536 C 116.438 87.295,111.747 82.400,111.274 82.400 C 111.050 82.400,110.776 82.175,110.665 81.900 C 110.504 81.500,110.457 81.500,110.432 81.900 M288.000 83.236 C 287.230 84.124,285.655 85.874,284.500 87.125 C 283.345 88.376,282.400 89.552,282.400 89.739 C 282.400 89.926,281.905 90.559,281.300 91.145 C 279.778 92.621,277.600 95.465,277.600 95.977 C 277.600 96.209,277.447 96.400,277.261 96.400 C 277.074 96.400,276.597 97.120,276.200 98.000 C 275.803 98.880,275.326 99.600,275.139 99.600 C 274.953 99.600,274.800 99.960,274.800 100.400 C 274.800 100.840,274.620 101.200,274.400 101.200 C 274.180 101.200,274.000 101.560,274.000 102.000 C 274.000 102.440,273.820 102.800,273.600 102.800 C 273.380 102.800,273.200 103.160,273.200 103.600 C 273.200 104.040,273.020 104.400,272.800 104.400 C 272.580 104.400,272.400 104.760,272.400 105.200 C 272.400 105.640,272.220 106.000,272.000 106.000 C 271.780 106.000,271.600 106.360,271.600 106.800 C 271.600 107.240,271.454 107.600,271.275 107.600 C 271.096 107.600,270.702 108.230,270.400 109.000 C 270.098 109.770,269.704 110.400,269.525 110.400 C 269.346 110.400,269.200 110.850,269.200 111.400 C 269.200 111.950,269.020 112.400,268.800 112.400 C 268.580 112.400,268.400 112.850,268.400 113.400 C 268.400 113.950,268.220 114.400,268.000 114.400 C 267.780 114.400,267.600 114.839,267.600 115.376 C 267.600 115.913,267.420 116.464,267.200 116.600 C 266.980 116.736,266.800 117.197,266.800 117.624 C 266.800 118.051,266.620 118.400,266.400 118.400 C 266.180 118.400,266.000 119.041,266.000 119.824 C 266.000 120.671,265.838 121.147,265.600 121.000 C 265.359 120.851,265.200 121.388,265.200 122.353 C 265.200 123.233,265.020 124.064,264.800 124.200 C 264.580 124.336,264.400 124.966,264.400 125.600 C 264.400 126.234,264.220 126.864,264.000 127.000 C 263.780 127.136,263.600 127.946,263.600 128.800 C 263.600 129.654,263.420 130.464,263.200 130.600 C 262.980 130.736,262.800 132.502,262.800 134.524 L 262.800 138.200 283.300 137.910 C 294.575 137.751,306.312 137.515,309.382 137.387 C 315.731 137.123,316.800 137.270,316.800 138.408 C 316.800 138.843,316.980 139.200,317.200 139.200 C 317.420 139.200,317.600 138.390,317.600 137.400 C 317.600 136.410,317.420 135.600,317.200 135.600 C 316.978 135.600,316.800 134.533,316.800 133.200 C 316.800 131.867,316.622 130.800,316.400 130.800 C 316.180 130.800,316.000 130.005,316.000 129.033 C 316.000 128.062,315.828 127.207,315.618 127.133 C 315.407 127.060,315.190 126.325,315.136 125.500 C 315.081 124.675,314.893 124.000,314.718 124.000 C 314.543 124.000,314.400 123.460,314.400 122.800 C 314.400 122.140,314.220 121.600,314.000 121.600 C 313.780 121.600,313.600 121.060,313.600 120.400 C 313.600 119.740,313.420 119.200,313.200 119.200 C 312.980 119.200,312.800 118.660,312.800 118.000 C 312.800 117.340,312.620 116.800,312.400 116.800 C 312.180 116.800,312.000 116.474,312.000 116.075 C 312.000 115.676,311.640 114.605,311.200 113.694 C 310.760 112.784,310.400 111.885,310.400 111.696 C 310.400 111.508,309.815 110.186,309.100 108.759 C 308.385 107.332,307.541 105.497,307.225 104.682 C 306.909 103.867,306.504 103.200,306.325 103.200 C 306.146 103.200,306.000 102.930,306.000 102.600 C 306.000 102.270,305.809 102.000,305.576 102.000 C 305.343 102.000,305.255 101.835,305.380 101.632 C 305.505 101.430,305.336 100.993,305.004 100.661 C 304.672 100.329,304.400 99.774,304.400 99.429 C 304.400 99.083,304.262 98.800,304.094 98.800 C 303.926 98.800,303.344 98.080,302.800 97.200 C 302.256 96.320,301.674 95.600,301.506 95.600 C 301.338 95.600,301.200 95.283,301.200 94.896 C 301.200 94.509,300.840 93.968,300.400 93.693 C 299.960 93.418,299.600 92.997,299.600 92.757 C 299.600 92.517,299.060 91.817,298.400 91.200 C 297.740 90.583,297.200 89.886,297.200 89.649 C 297.200 89.096,290.620 82.400,290.077 82.400 C 289.851 82.400,289.607 82.225,289.533 82.010 C 289.460 81.796,288.770 82.348,288.000 83.236 M197.232 111.805 C 195.820 112.773,194.380 113.860,194.032 114.221 C 193.685 114.583,194.893 113.870,196.717 112.638 C 200.587 110.024,200.108 109.952,205.531 113.973 C 207.329 115.306,208.800 116.282,208.800 116.142 C 208.800 115.694,200.710 109.983,200.132 110.023 C 199.949 110.036,198.645 110.838,197.232 111.805 M189.800 117.547 C 186.414 120.454,184.062 122.800,184.534 122.800 C 184.690 122.800,185.770 121.855,186.934 120.700 C 188.097 119.545,190.029 117.753,191.225 116.718 C 192.421 115.682,193.310 114.827,193.200 114.818 C 193.090 114.808,191.560 116.036,189.800 117.547 M209.255 116.625 C 209.285 116.831,211.298 118.890,213.727 121.200 C 216.952 124.266,217.647 124.804,216.301 123.190 C 215.286 121.975,213.769 120.372,212.928 119.628 C 212.088 118.885,210.905 117.821,210.300 117.263 C 209.695 116.706,209.225 116.419,209.255 116.625 M183.398 123.765 C 183.179 124.076,182.400 125.066,181.666 125.965 C 179.713 128.360,180.337 127.960,182.547 125.400 C 183.591 124.190,184.300 123.200,184.121 123.200 C 183.942 123.200,183.617 123.454,183.398 123.765 M220.058 128.300 C 222.729 131.858,223.323 132.399,221.268 129.400 C 219.227 126.423,218.579 125.600,218.272 125.600 C 218.140 125.600,218.944 126.815,220.058 128.300 M177.420 131.649 C 174.857 135.566,173.906 137.240,174.122 137.455 C 174.197 137.530,174.686 136.828,175.209 135.896 C 175.732 134.963,177.110 132.805,178.270 131.100 C 179.430 129.395,180.249 128.003,180.089 128.006 C 179.930 128.010,178.729 129.649,177.420 131.649 M223.960 133.800 C 224.634 135.105,225.188 135.828,225.185 135.400 C 225.183 135.180,224.814 134.550,224.364 134.000 C 223.821 133.336,223.685 133.269,223.960 133.800 M82.637 139.140 C 82.290 139.702,82.474 143.200,82.851 143.200 C 83.043 143.200,83.200 142.210,83.200 141.000 C 83.200 138.863,83.071 138.437,82.637 139.140 M317.732 144.634 C 317.598 144.983,317.600 146.594,317.737 148.215 C 317.917 150.344,317.850 151.250,317.493 151.481 C 317.222 151.656,304.760 151.800,289.800 151.800 L 262.600 151.800 262.600 172.400 L 262.600 193.000 289.800 193.021 C 304.760 193.033,317.225 193.078,317.500 193.121 C 318.111 193.218,318.211 205.448,317.608 206.400 C 317.276 206.924,313.758 207.000,289.914 207.000 L 262.600 207.000 262.496 228.372 C 262.402 247.837,262.337 249.674,261.767 248.972 C 261.039 248.074,261.063 248.143,262.734 251.675 C 263.430 253.146,264.000 254.446,264.000 254.565 C 264.000 254.683,264.508 255.909,265.130 257.290 C 265.751 258.670,266.492 260.430,266.776 261.200 C 267.061 261.970,267.524 263.140,267.806 263.800 C 268.087 264.460,269.347 267.430,270.604 270.400 C 271.862 273.370,273.018 275.980,273.174 276.200 C 273.330 276.420,274.035 277.950,274.741 279.600 L 276.025 282.600 289.512 290.698 C 296.931 295.152,306.132 300.687,309.959 302.998 C 313.787 305.309,317.254 307.200,317.665 307.200 C 318.390 307.200,318.410 304.962,318.394 225.600 C 318.386 180.720,318.288 144.000,318.177 144.000 C 318.066 144.000,317.865 144.285,317.732 144.634 M82.400 172.400 L 82.400 193.200 99.700 193.199 C 109.215 193.199,121.725 193.080,127.500 192.935 L 138.000 192.672 138.000 172.400 L 138.000 152.128 128.335 151.864 C 123.020 151.719,110.510 151.600,100.535 151.600 L 82.400 151.600 82.400 172.400 M232.056 152.400 C 232.056 152.730,232.211 153.360,232.400 153.800 C 232.617 154.304,232.744 154.378,232.744 154.000 C 232.744 153.670,232.589 153.040,232.400 152.600 C 232.183 152.096,232.056 152.022,232.056 152.400 M167.422 154.222 C 167.272 155.025,167.238 155.772,167.348 155.882 C 167.458 155.992,167.672 155.425,167.822 154.622 C 167.973 153.819,168.006 153.073,167.896 152.963 C 167.786 152.853,167.573 153.419,167.422 154.222 M232.856 156.000 C 232.856 156.330,233.011 156.960,233.200 157.400 C 233.417 157.904,233.544 157.978,233.544 157.600 C 233.544 157.270,233.389 156.640,233.200 156.200 C 232.983 155.696,232.856 155.622,232.856 156.000 M166.600 158.000 C 166.446 158.910,166.411 159.744,166.521 159.854 C 166.631 159.964,166.846 159.310,167.000 158.400 C 167.154 157.490,167.189 156.656,167.079 156.546 C 166.969 156.436,166.754 157.090,166.600 158.000 M233.872 161.400 C 233.999 162.500,234.169 163.475,234.251 163.567 C 234.532 163.882,234.320 161.399,233.980 160.400 C 233.751 159.726,233.716 160.051,233.872 161.400 M165.889 162.956 C 165.730 164.032,165.624 165.832,165.653 166.956 C 165.699 168.720,165.754 168.562,166.055 165.800 C 166.453 162.156,166.327 159.995,165.889 162.956 M234.573 176.400 C 234.573 181.790,234.630 183.995,234.699 181.300 C 234.768 178.605,234.768 174.195,234.699 171.500 C 234.630 168.805,234.573 171.010,234.573 176.400 M160.600 197.461 C 160.264 198.265,160.082 199.015,160.195 199.128 C 160.308 199.241,160.400 199.235,160.400 199.116 C 160.400 198.996,160.672 198.246,161.005 197.449 C 161.338 196.652,161.521 196.000,161.411 196.000 C 161.301 196.000,160.936 196.658,160.600 197.461 M158.200 203.061 C 157.864 203.865,157.682 204.615,157.795 204.728 C 157.908 204.841,158.000 204.835,158.000 204.716 C 158.000 204.596,158.272 203.846,158.605 203.049 C 158.938 202.252,159.121 201.600,159.011 201.600 C 158.901 201.600,158.536 202.258,158.200 203.061 M156.790 206.200 C 156.576 206.750,156.209 207.695,155.975 208.300 C 155.741 208.905,155.714 209.220,155.915 209.000 C 156.386 208.483,157.658 205.200,157.387 205.200 C 157.273 205.200,157.005 205.650,156.790 206.200 M82.400 234.347 L 82.400 262.094 107.500 261.955 C 123.741 261.865,132.581 261.954,132.546 262.208 C 132.516 262.424,132.361 263.050,132.201 263.600 C 131.675 265.406,132.634 263.906,133.607 261.400 C 134.119 260.080,135.047 257.870,135.669 256.490 C 136.291 255.109,136.800 253.899,136.800 253.800 C 136.800 253.701,137.348 252.424,138.018 250.961 C 138.688 249.499,139.138 248.204,139.018 248.084 C 138.898 247.965,138.800 248.077,138.800 248.333 C 138.800 248.590,138.620 248.800,138.400 248.800 C 138.138 248.800,138.000 241.615,138.000 228.046 L 138.000 207.293 124.300 207.030 C 116.765 206.886,104.255 206.730,96.500 206.684 L 82.400 206.600 82.400 234.347 M154.400 211.684 C 154.400 211.804,154.128 212.554,153.795 213.351 C 153.462 214.148,153.279 214.800,153.389 214.800 C 153.706 214.800,154.833 211.900,154.605 211.672 C 154.492 211.559,154.400 211.565,154.400 211.684 M142.600 239.461 C 142.264 240.265,142.082 241.015,142.195 241.128 C 142.308 241.241,142.400 241.235,142.400 241.116 C 142.400 240.996,142.672 240.246,143.005 239.449 C 143.338 238.652,143.521 238.000,143.411 238.000 C 143.301 238.000,142.936 238.658,142.600 239.461 M141.238 242.500 C 141.049 242.995,140.604 244.097,140.248 244.949 C 139.544 246.631,139.409 247.367,139.985 246.385 C 140.591 245.349,142.001 241.600,141.784 241.600 C 141.672 241.600,141.426 242.005,141.238 242.500 M317.586 262.374 C 318.198 263.518,318.126 274.478,317.500 275.319 C 317.038 275.940,315.357 275.969,295.205 275.695 L 273.409 275.400 272.605 273.769 C 272.162 272.871,271.468 271.341,271.062 270.369 C 270.656 269.396,270.085 268.060,269.793 267.400 C 269.501 266.740,268.892 265.257,268.439 264.104 L 267.615 262.008 285.507 261.900 C 295.348 261.840,306.499 261.748,310.286 261.696 C 316.738 261.606,317.198 261.649,317.586 262.374 M131.185 265.839 C 130.945 266.471,130.511 267.531,130.222 268.194 C 129.932 268.857,129.404 270.075,129.047 270.900 C 128.057 273.195,127.071 275.385,126.958 275.538 C 126.903 275.614,116.855 275.651,104.629 275.620 L 82.400 275.565 82.400 291.159 C 82.400 301.449,82.540 306.840,82.813 307.008 C 83.040 307.148,92.484 301.714,103.800 294.932 L 124.375 282.600 125.638 279.800 C 128.944 272.476,132.015 265.082,131.829 264.896 C 131.715 264.782,131.426 265.206,131.185 265.839 " stroke="none" fill="#f4ac43" fill-rule="evenodd"></path><path id="path4" d="M203.374 5.538 C 205.612 10.004,207.890 14.842,208.395 16.200 C 208.793 17.269,209.383 18.739,210.000 20.200 C 210.279 20.860,210.639 21.760,210.800 22.200 C 210.961 22.640,211.285 23.450,211.520 24.000 C 212.214 25.623,213.466 29.508,214.744 34.000 C 217.707 44.415,219.735 55.297,220.634 65.600 C 220.759 67.030,220.944 81.764,221.045 98.343 L 221.229 128.486 222.814 130.821 C 223.686 132.105,224.400 133.346,224.400 133.578 C 224.400 133.810,224.580 134.000,224.800 134.000 C 225.020 134.000,225.200 134.270,225.200 134.600 C 225.200 134.930,225.336 135.200,225.502 135.200 C 225.669 135.200,226.045 135.785,226.338 136.500 C 226.631 137.215,227.417 138.970,228.084 140.400 C 228.752 141.830,229.456 143.405,229.649 143.900 C 229.842 144.395,230.168 145.205,230.374 145.700 C 230.579 146.195,231.142 147.770,231.624 149.200 C 232.107 150.630,232.637 151.980,232.803 152.200 C 232.969 152.420,233.209 153.230,233.336 154.000 C 233.463 154.770,233.767 156.390,234.011 157.600 C 234.843 161.713,235.206 166.583,235.427 176.600 C 235.585 183.779,235.801 186.939,236.193 187.800 C 236.492 188.460,237.117 189.990,237.580 191.200 C 238.492 193.584,239.093 195.007,239.647 196.095 C 239.841 196.477,240.000 197.062,240.000 197.395 C 240.000 197.728,240.180 198.000,240.400 198.000 C 240.620 198.000,240.800 198.272,240.800 198.605 C 240.800 198.938,240.980 199.568,241.200 200.005 C 241.420 200.442,241.780 201.158,242.000 201.595 C 242.220 202.032,242.400 202.662,242.400 202.995 C 242.400 203.328,242.580 203.600,242.800 203.600 C 243.020 203.600,243.200 203.872,243.200 204.205 C 243.200 204.538,243.380 205.168,243.600 205.605 C 243.820 206.042,244.180 206.758,244.400 207.195 C 244.620 207.632,244.800 208.262,244.800 208.595 C 244.800 208.928,244.980 209.200,245.200 209.200 C 245.420 209.200,245.600 209.453,245.600 209.762 C 245.600 210.247,246.152 211.520,247.650 214.495 C 247.843 214.877,248.000 215.462,248.000 215.795 C 248.000 216.128,248.180 216.400,248.400 216.400 C 248.620 216.400,248.800 216.720,248.800 217.110 C 248.800 217.501,249.334 218.896,249.987 220.210 C 250.641 221.525,251.181 222.791,251.187 223.025 C 251.194 223.259,251.585 224.247,252.056 225.222 C 253.543 228.300,256.400 235.295,256.400 235.859 C 256.400 236.157,256.580 236.400,256.800 236.400 C 257.020 236.400,257.200 236.672,257.200 237.005 C 257.200 237.593,257.367 238.018,258.338 239.895 C 258.592 240.387,258.800 241.062,258.800 241.395 C 258.800 241.728,258.980 242.000,259.200 242.000 C 259.420 242.000,259.600 242.272,259.600 242.605 C 259.600 242.938,259.768 243.523,259.974 243.905 C 260.179 244.287,260.584 245.187,260.874 245.905 C 261.315 247.001,261.447 239.508,261.694 199.305 C 261.855 172.957,262.034 148.340,262.092 144.600 C 262.150 140.860,262.144 131.050,262.077 122.800 C 261.931 104.577,261.923 105.105,262.333 105.359 C 262.517 105.472,262.667 105.303,262.667 104.982 C 262.667 104.662,262.517 104.400,262.333 104.400 C 262.150 104.400,262.000 103.961,262.000 103.424 C 262.000 102.887,261.805 102.327,261.566 102.179 C 261.311 102.021,261.165 100.817,261.211 99.255 C 261.310 95.875,261.274 95.507,260.865 95.760 C 260.681 95.874,260.491 94.849,260.443 93.483 C 260.395 92.118,260.185 90.940,259.978 90.867 C 259.770 90.793,259.600 89.838,259.600 88.743 C 259.600 87.518,259.446 86.848,259.200 87.000 C 258.966 87.145,258.800 86.730,258.800 86.000 C 258.800 85.250,258.964 84.854,259.210 85.006 C 259.435 85.145,259.570 85.021,259.510 84.730 C 259.449 84.438,259.085 84.071,258.700 83.913 C 258.217 83.715,258.000 83.181,258.000 82.189 C 258.000 81.399,258.154 80.848,258.342 80.964 C 258.530 81.081,258.584 80.686,258.462 80.088 C 258.307 79.330,258.194 79.213,258.091 79.700 C 257.845 80.853,257.200 80.491,257.200 79.200 C 257.200 78.540,257.391 78.000,257.624 78.000 C 257.857 78.000,257.941 77.828,257.811 77.617 C 257.681 77.407,257.310 77.336,256.987 77.460 C 256.310 77.720,256.140 76.208,256.800 75.800 C 257.020 75.664,257.200 75.773,257.200 76.043 C 257.200 76.313,257.294 76.439,257.409 76.324 C 257.849 75.884,257.079 74.800,256.327 74.800 C 255.717 74.800,255.556 74.552,255.612 73.700 C 255.726 71.973,255.631 71.534,255.200 71.800 C 254.980 71.936,254.800 71.777,254.800 71.447 C 254.800 71.117,255.008 70.719,255.262 70.562 C 255.567 70.373,255.614 70.454,255.400 70.800 C 255.184 71.149,255.233 71.227,255.545 71.034 C 256.224 70.615,255.637 69.897,254.795 70.117 C 254.073 70.306,253.917 69.106,254.534 68.107 C 254.678 67.874,254.485 67.714,254.096 67.745 C 253.525 67.790,253.420 67.512,253.511 66.200 C 253.590 65.054,253.512 64.767,253.233 65.188 C 253.019 65.512,252.739 65.673,252.612 65.546 C 252.257 65.190,252.836 63.975,253.242 64.226 C 253.439 64.348,253.600 64.237,253.600 63.980 C 253.600 63.676,253.234 63.605,252.552 63.776 C 251.597 64.016,251.525 63.953,251.748 63.066 C 251.908 62.425,251.776 61.912,251.360 61.567 C 250.787 61.091,250.794 60.993,251.440 60.521 C 252.091 60.045,252.061 60.000,251.089 60.000 C 250.309 60.000,250.086 59.840,250.254 59.402 C 250.381 59.074,250.673 58.921,250.904 59.064 C 251.149 59.216,251.205 59.131,251.038 58.862 C 250.881 58.608,250.493 58.400,250.176 58.400 C 249.656 58.400,249.424 57.916,249.553 57.100 C 249.579 56.935,249.420 56.800,249.200 56.800 C 248.980 56.800,248.800 56.462,248.800 56.049 C 248.800 55.636,248.526 55.070,248.190 54.792 C 247.855 54.514,247.670 54.197,247.779 54.088 C 247.887 53.979,247.622 53.392,247.188 52.783 C 246.755 52.175,246.400 51.382,246.400 51.022 C 246.400 50.661,246.040 49.980,245.600 49.508 C 244.780 48.627,244.482 47.356,245.200 47.800 C 245.420 47.936,245.600 47.844,245.600 47.597 C 245.600 47.328,245.277 47.249,244.800 47.400 C 244.176 47.598,244.000 47.472,244.000 46.827 C 244.000 46.372,243.820 46.000,243.600 46.000 C 243.380 46.000,243.200 45.730,243.200 45.400 C 243.200 45.070,243.020 44.800,242.800 44.800 C 242.580 44.800,242.400 44.530,242.400 44.200 C 242.400 43.870,242.220 43.600,242.000 43.600 C 241.780 43.600,241.600 43.229,241.600 42.776 C 241.600 42.323,241.420 42.064,241.200 42.200 C 240.980 42.336,240.800 42.092,240.800 41.657 C 240.800 41.222,240.658 40.807,240.486 40.733 C 240.001 40.528,238.400 38.134,238.400 37.615 C 238.400 37.361,238.583 37.266,238.807 37.404 C 239.030 37.542,239.094 37.868,238.948 38.128 C 238.745 38.488,238.802 38.489,239.188 38.133 C 239.595 37.758,239.588 37.553,239.152 37.087 C 238.680 36.581,238.542 36.590,238.075 37.153 C 237.599 37.730,237.561 37.705,237.725 36.930 C 237.857 36.308,237.752 36.120,237.355 36.273 C 237.024 36.400,236.800 36.227,236.800 35.843 C 236.800 35.489,236.653 35.200,236.474 35.200 C 235.961 35.200,234.381 32.155,234.708 31.795 C 234.868 31.617,234.744 31.620,234.432 31.801 C 234.013 32.045,233.929 31.962,234.112 31.486 C 234.286 31.033,234.187 30.907,233.780 31.063 C 233.383 31.215,233.200 31.011,233.200 30.419 C 233.200 29.866,233.367 29.656,233.662 29.838 C 233.959 30.022,234.015 29.947,233.817 29.627 C 233.615 29.300,233.375 29.265,233.115 29.525 C 232.591 30.049,231.268 28.798,231.537 28.034 C 231.657 27.692,231.561 27.577,231.293 27.743 C 231.037 27.901,230.347 27.295,229.660 26.308 C 228.273 24.318,225.740 21.593,225.500 21.833 C 225.409 21.924,225.094 21.549,224.800 20.999 C 224.506 20.450,224.105 20.000,223.909 20.000 C 223.713 20.000,223.666 19.817,223.804 19.593 C 223.942 19.370,224.251 19.308,224.489 19.455 C 224.757 19.621,224.808 19.536,224.621 19.235 C 224.455 18.966,224.090 18.833,223.809 18.941 C 223.521 19.052,223.321 18.865,223.350 18.511 C 223.377 18.167,223.150 17.798,222.844 17.691 C 222.505 17.572,222.398 17.672,222.568 17.948 C 223.002 18.651,222.454 18.481,221.541 17.631 C 221.087 17.207,220.833 16.670,220.978 16.435 C 221.136 16.181,221.008 16.099,220.661 16.232 C 220.342 16.354,219.945 16.234,219.779 15.965 C 219.608 15.690,219.643 15.579,219.857 15.712 C 220.067 15.841,220.500 15.782,220.819 15.580 C 221.451 15.180,220.981 15.031,219.535 15.173 C 218.637 15.261,218.164 14.403,218.849 13.929 C 219.256 13.648,219.190 13.606,218.600 13.769 C 217.653 14.031,215.036 11.805,215.344 11.001 C 215.473 10.667,215.288 10.557,214.808 10.682 C 214.294 10.816,214.095 10.667,214.138 10.179 C 214.180 9.710,213.881 9.458,213.220 9.403 C 212.682 9.358,212.172 9.115,212.087 8.861 C 212.002 8.607,211.682 8.400,211.374 8.400 C 211.067 8.400,210.705 7.962,210.571 7.427 C 210.415 6.804,210.123 6.531,209.763 6.669 C 209.453 6.788,209.200 6.686,209.200 6.443 C 209.200 6.199,208.930 6.000,208.600 6.000 C 208.270 6.000,208.000 5.719,208.000 5.376 C 208.000 5.006,207.812 4.869,207.537 5.039 C 207.218 5.236,207.146 5.050,207.306 4.440 C 207.490 3.735,207.428 3.645,207.004 3.997 C 206.636 4.302,206.391 4.309,206.212 4.019 C 206.069 3.789,206.154 3.600,206.400 3.600 C 206.646 3.600,206.724 3.401,206.574 3.157 C 206.383 2.849,206.197 2.879,205.961 3.257 C 205.513 3.976,204.175 3.169,204.258 2.231 C 204.300 1.756,204.180 1.685,203.828 1.976 C 203.496 2.252,203.193 2.233,202.875 1.915 C 201.225 0.265,201.412 1.625,203.374 5.538 M138.150 138.850 C 138.287 139.537,138.400 142.688,138.400 145.850 L 138.400 151.600 153.213 151.600 C 164.726 151.600,168.054 151.489,168.156 151.100 C 168.537 149.647,169.304 147.280,169.680 146.400 C 169.915 145.850,170.239 145.040,170.401 144.600 C 170.562 144.160,171.258 142.650,171.947 141.244 C 172.636 139.838,173.200 138.443,173.200 138.144 C 173.200 137.694,170.162 137.600,155.550 137.600 L 137.900 137.600 138.150 138.850 " stroke="none" fill="#d44c14" fill-rule="evenodd"></path></g></svg>